# xmcd
#
# Track frame offsets: 
#        150
#        29270
#        49237
#
# Disc length: 959 seconds
#
# Revision: 3
# Processed by: cddbd v1.5.2PL0 Copyright (c) Steve Scherf et al.
# Submitted via: ExactAudioCopy v1.0b3
#
DISCID=1f03bd03
DTITLE=佐野元春 - 僕は愚かな人類の子供だった (初回紙ジャケット仕様) ESCB-1945
DYEAR=1999
DGENRE=Rock
TTITLE0=僕は愚かな人類の子供だった [Original version]
TTITLE1=僕は愚かな人類の子供だった [CMJK version]
TTITLE2=僕は愚かな人類の子供だった [DJ CELORY version]
EXTD=YEAR: 1999
EXTT0=
EXTT1=
EXTT2=
PLAYORDER=
